<?xml version="1.0" encoding="UTF-8" standalone="no"?>
<svg width="32px" height="32px" viewBox="0 0 32 32" version="1.1" xmlns="http://www.w3.org/2000/svg" xmlns:xlink="http://www.w3.org/1999/xlink">
    <!-- Generator: Sketch 49 (51002) - http://www.bohemiancoding.com/sketch -->
    <title>Icon/Show Details/Date</title>
    <desc>Created with Sketch.</desc>
    <defs></defs>
    <g id="Icon/Show-Details/Date" stroke="none" stroke-width="1" fill="none" fill-rule="evenodd">
        <path d="M25.1897436,3.79323747 L26.4752137,3.79323747 C29.4837607,3.79323747 31.9452991,6.03186941 31.9452991,8.76797513 L31.9452991,11.255344 L0,11.255344 L0,8.76797513 C0,6.03186941 2.46153846,3.79323747 5.47008547,3.79323747 L6.85128205,3.79323747 L6.85128205,1.11931597 C6.85128205,0.501134831 7.40231621,0 8.08205128,0 C8.76178636,0 9.31282051,0.501134831 9.31282051,1.11931597 L9.31282051,3.79323747 L22.7282051,3.79323747 L22.7282051,1.11931597 C22.7282051,0.501134831 23.2792393,0 23.9589744,0 C24.6387094,0 25.1897436,0.501134831 25.1897436,1.11931597 L25.1897436,3.79323747 Z M26.4752137,32 L5.47008547,32 C2.46153846,32 0,29.7613681 0,27.0252623 L0,13.245239 L32,13.245239 L32,27.0252623 C31.9452991,29.7613681 29.4837607,32 26.4752137,32 Z" id="Combined-Shape" fill="#00B6CB"></path>
        <path d="M10.6390374,20.973262 L11.8743316,20.973262 C12.4625698,20.973262 12.8983943,20.8262047 13.1818182,20.5320856 C13.4652421,20.2379664 13.6069519,19.847596 13.6069519,19.3609626 C13.6069519,19.1470578 13.5748666,18.9478619 13.5106952,18.763369 C13.4465237,18.5788761 13.3489311,18.4211236 13.2179144,18.290107 C13.0868977,18.1590903 12.9224609,18.0561501 12.7245989,17.9812834 C12.526737,17.9064167 12.294119,17.868984 12.026738,17.868984 C11.8128332,17.868984 11.6109635,17.8997323 11.421123,17.9612299 C11.2312825,18.0227276 11.0655087,18.1096251 10.9237968,18.2219251 C10.7820849,18.3342252 10.6697865,18.4719243 10.5868984,18.6350267 C10.5040103,18.7981292 10.4625668,18.9812824 10.4625668,19.184492 L8.14438503,19.184492 C8.14438503,18.7032061 8.2446514,18.2660447 8.44518717,17.8729947 C8.64572293,17.4799446 8.91844747,17.1457233 9.26336898,16.8703209 C9.60829049,16.5949184 10.0133667,16.3810168 10.4786096,16.2286096 C10.9438526,16.0762024 11.4411738,16 11.9705882,16 C12.5588265,16 13.0949174,16.0708549 13.578877,16.2125668 C14.0628366,16.3542788 14.4786079,16.5655066 14.8262032,16.8462567 C15.1737985,17.1270068 15.4438493,17.4745969 15.6363636,17.8890374 C15.828878,18.303478 15.9251337,18.7834197 15.9251337,19.328877 C15.9251337,19.5802152 15.886364,19.8288758 15.8088235,20.0748663 C15.731283,20.3208568 15.6163109,20.552138 15.4639037,20.7687166 C15.3114966,20.9852952 15.1256695,21.185828 14.9064171,21.3703209 C14.6871647,21.5548138 14.4358303,21.7112293 14.1524064,21.8395722 C14.8101637,22.0748675 15.3008005,22.4278051 15.6243316,22.8983957 C15.9478626,23.3689863 16.1096257,23.9251305 16.1096257,24.5668449 C16.1096257,25.1123022 16.0040118,25.5989283 15.7927807,26.026738 C15.5815497,26.4545476 15.2914457,26.8141697 14.9224599,27.105615 C14.5534741,27.3970603 14.1163127,27.6189832 13.6109626,27.7713904 C13.1056124,27.9237976 12.5588265,28 11.9705882,28 C11.4732595,28 10.9866334,27.9331557 10.5106952,27.7994652 C10.034757,27.6657747 9.61096443,27.4598944 9.23930481,27.1818182 C8.8676452,26.9037419 8.56818295,26.5548149 8.34090909,26.1350267 C8.11363523,25.7152385 8,25.2165804 8,24.6390374 L10.3181818,24.6390374 C10.3181818,24.8582899 10.3609621,25.0588226 10.4465241,25.2406417 C10.532086,25.4224608 10.6510688,25.5788764 10.8034759,25.709893 C10.9558831,25.8409097 11.1363626,25.9438499 11.3449198,26.0187166 C11.553477,26.0935833 11.7807474,26.131016 12.026738,26.131016 C12.2994666,26.131016 12.5454534,26.0935833 12.7647059,26.0187166 C12.9839583,25.9438499 13.1697853,25.8355622 13.3221925,25.6938503 C13.4745997,25.5521383 13.5909087,25.3836908 13.671123,25.1885027 C13.7513373,24.9933145 13.7914439,24.7754023 13.7914439,24.5347594 C13.7914439,24.2245974 13.7473266,23.9585573 13.6590909,23.736631 C13.5708552,23.5147048 13.4438511,23.3342253 13.2780749,23.1951872 C13.1122986,23.056149 12.910429,22.9532089 12.6724599,22.8863636 C12.4344908,22.8195184 12.1684507,22.7860963 11.8743316,22.7860963 L10.6390374,22.7860963 L10.6390374,20.973262 Z M23.542246,27.8395722 L21.2240641,27.8395722 L21.2240641,18.9037433 L18.4566845,19.7620321 L18.4566845,17.8770053 L23.2935829,16.144385 L23.542246,16.144385 L23.542246,27.8395722 Z" id="31" fill="#FFFFFF"></path>
    </g>
</svg>