<?xml version="1.0" encoding="UTF-8" standalone="no"?>
<svg width="32px" height="32px" viewBox="0 0 32 32" version="1.1" xmlns="http://www.w3.org/2000/svg" xmlns:xlink="http://www.w3.org/1999/xlink">
    <!-- Generator: Sketch 49 (51002) - http://www.bohemiancoding.com/sketch -->
    <title>Icon/Show Details/Note</title>
    <desc>Created with Sketch.</desc>
    <defs></defs>
    <g id="Icon/Show-Details/Note" stroke="none" stroke-width="1" fill="none" fill-rule="evenodd">
        <path d="M5,0 L27,0 C28.1045695,-2.02906125e-16 29,0.8954305 29,2 L29,30 C29,31.1045695 28.1045695,32 27,32 L5,32 C3.8954305,32 3,31.1045695 3,30 L3,2 C3,0.8954305 3.8954305,2.02906125e-16 5,0 Z M9,6 C8.44771525,6 8,6.44771525 8,7 C8,7.55228475 8.44771525,8 9,8 L23,8 C23.5522847,8 24,7.55228475 24,7 C24,6.44771525 23.5522847,6 23,6 L9,6 Z M9,12 C8.44771525,12 8,12.4477153 8,13 C8,13.5522847 8.44771525,14 9,14 L23,14 C23.5522847,14 24,13.5522847 24,13 C24,12.4477153 23.5522847,12 23,12 L9,12 Z M9,18 C8.44771525,18 8,18.4477153 8,19 C8,19.5522847 8.44771525,20 9,20 L23,20 C23.5522847,20 24,19.5522847 24,19 C24,18.4477153 23.5522847,18 23,18 L9,18 Z M9,24 C8.44771525,24 8,24.4477153 8,25 C8,25.5522847 8.44771525,26 9,26 L23,26 C23.5522847,26 24,25.5522847 24,25 C24,24.4477153 23.5522847,24 23,24 L9,24 Z" id="Combined-Shape" fill="#4BB7CB"></path>
    </g>
</svg>