<?xml version="1.0" encoding="UTF-8" standalone="no"?>
<svg width="32px" height="32px" viewBox="0 0 32 32" version="1.1" xmlns="http://www.w3.org/2000/svg" xmlns:xlink="http://www.w3.org/1999/xlink">
    <!-- Generator: Sketch 49 (51002) - http://www.bohemiancoding.com/sketch -->
    <title>Icon/Show Details/Tag</title>
    <desc>Created with Sketch.</desc>
    <defs></defs>
    <g id="Icon/Show-Details/Tag" stroke="none" stroke-width="1" fill="none" fill-rule="evenodd">
        <path d="M8.67056299,8.67063698 C8.14219131,9.19871273 7.50521565,9.46289857 6.75882222,9.46289857 C6.01272472,9.46289857 5.37545313,9.19871273 4.84737738,8.67063698 C4.31930162,8.14248724 4.05533772,7.50551158 4.05533772,6.75919213 C4.05533772,6.0127987 4.31930162,5.37560109 4.84737738,4.84774728 C5.37552711,4.31959754 6.01272472,4.0554117 6.75882222,4.0554117 C7.50521565,4.0554117 8.14241326,4.31959754 8.67056299,4.84774728 C9.19841681,5.37560109 9.46260265,6.01287268 9.46260265,6.75919213 C9.46260265,7.50551158 9.19871273,8.14248724 8.67056299,8.67063698 Z M31.2186876,17.0032552 L16.116372,1.9220981 C15.5811201,1.38662425 14.8631353,0.932677369 13.9619738,0.559665606 C13.0605164,0.186579862 12.2368129,0 11.4904195,0 L2.70363246,0 C1.97129541,0 1.33764889,0.267736924 0.802544943,0.802544943 C0.267441,1.33764889 0,1.97129541 0,2.70363246 L0,11.4904195 C0,12.2367389 0.18635792,13.0602205 0.559591625,13.9616779 C0.932825331,14.8631353 1.38684619,15.5738699 1.9220981,16.0950655 L17.0241918,31.2184656 C17.5452393,31.7395132 18.178442,32 18.9252793,32 C19.6569505,32 20.2982171,31.7395132 20.8473034,31.2184656 L31.2183917,20.8263668 C31.7394392,20.3050973 31.9997041,19.6719686 31.9997041,18.9255752 C31.9997041,18.1933121 31.7394392,17.5525634 31.2186876,17.0032552 Z" id="Shape" fill="#4BB7CB" fill-rule="nonzero" transform="translate(15.999852, 16.000000) scale(-1, 1) translate(-15.999852, -16.000000) "></path>
    </g>
</svg>