<?xml version="1.0" encoding="UTF-8" standalone="no"?>
<svg width="32px" height="32px" viewBox="0 0 32 32" version="1.1" xmlns="http://www.w3.org/2000/svg" xmlns:xlink="http://www.w3.org/1999/xlink">
    <!-- Generator: Sketch 49 (51002) - http://www.bohemiancoding.com/sketch -->
    <title>Icon/Show Details/Website</title>
    <desc>Created with Sketch.</desc>
    <defs></defs>
    <g id="Icon/Show-Details/Website" stroke="none" stroke-width="1" fill="none" fill-rule="evenodd">
        <g id="Website" fill="#4BB7CB">
            <path d="M28.470948,6.01834862 L28.5321101,6.01834862 C30.7170448,8.77180803 31.9356292,12.1675106 32,15.6819572 L24.5749235,15.6819572 C24.5692963,13.0334065 24.2365008,10.3956943 23.5840979,7.82874618 L24.2813456,7.65137615 L24.4892966,7.59633028 C24.9296636,7.47400612 25.3577982,7.34148828 25.7737003,7.19877676 L25.969419,7.13149847 C26.3771662,6.98470948 26.7849134,6.82976555 27.1926606,6.66666667 L27.3700306,6.58715596 C27.7370031,6.37920489 28.1100917,6.20795107 28.470948,6.01834862 Z M28.470948,25.8960245 C28.116208,25.706422 27.7431193,25.5351682 27.351682,25.3639144 L27.1743119,25.2844037 C26.7665647,25.1213048 26.3588175,24.9663609 25.9510703,24.8195719 L25.7553517,24.7522936 C25.3476045,24.6095821 24.9194699,24.4770642 24.470948,24.3547401 L24.2629969,24.2996942 L23.5657492,24.1223242 C24.1757474,21.7528134 24.510274,19.3208253 24.5626911,16.8746177 L31.9755352,16.8746177 C31.7892224,20.1749669 30.5864235,23.3368539 28.5321101,25.9266055 L28.470948,25.8960245 Z M7.39449541,24.3669725 L6.72171254,24.5749235 C6.44648318,24.6605505 6.16513761,24.7461774 5.89602446,24.8440367 L5.28440367,25.088685 C5.02752294,25.1865443 4.77675841,25.2905199 4.52599388,25.4006116 C4.27522936,25.5107034 4.12844037,25.5840979 3.91437309,25.6819572 C3.70030581,25.7798165 3.60244648,25.82263 3.45565749,25.8960245 C1.40940729,23.3139309 0.20910986,20.1636841 0.0183486239,16.8746177 L7.35779817,16.8746177 C7.40588877,19.3203751 7.73631486,21.7523933 8.34250765,24.1223242 L8.28134557,24.1223242 C7.97553517,24.2140673 7.67584098,24.2874618 7.39449541,24.3669725 Z M3.89602446,6.2324159 C4.09174312,6.33027523 4.28746177,6.42201835 4.50764526,6.51376147 C4.72782875,6.60550459 5.00917431,6.72171254 5.26605505,6.82568807 L5.87767584,7.07033639 C6.14678899,7.16819572 6.42201835,7.25382263 6.70336391,7.33944954 L7.37614679,7.54740061 C7.66972477,7.62691131 7.98776758,7.70030581 8.26911315,7.77370031 L8.32415902,7.77370031 C7.6717542,10.348831 7.34099704,12.9948883 7.33944954,15.6513761 L-1.77635684e-15,15.6513761 C0.0657994022,12.1495969 1.27748913,8.76588883 3.44954128,6.01834862 C3.58409786,6.09174312 3.72477064,6.17125382 3.89602446,6.2324159 Z M21.2599388,23.6513761 L21.0703364,23.6513761 C20.5688073,23.5718654 20.0611621,23.5107034 19.5412844,23.4556575 L19.382263,23.4556575 C18.8501529,23.3577982 18.3119266,23.2966361 17.7920489,23.2966361 L17.6697248,23.2966361 C17.3027523,23.2966361 16.9357798,23.2966361 16.5688073,23.2599388 L16.5688073,16.8746177 L23.3394495,16.8746177 C23.2832035,19.2291395 22.9527377,21.5690835 22.3547401,23.8470948 C21.9959225,23.7737003 21.6309888,23.7084608 21.2599388,23.6513761 Z M13.5535168,23.3333333 C13.1559633,23.3333333 12.7584098,23.3883792 12.3730887,23.4250765 L11.675841,23.5168196 C11.3272171,23.559633 10.9785933,23.6024465 10.6360856,23.6574924 L9.93272171,23.7859327 L9.55963303,23.853211 C8.96111029,21.5732257 8.63063974,19.2311953 8.57492355,16.8746177 L15.3455657,16.8746177 L15.3455657,23.2538226 C14.941896,23.2538226 14.5382263,23.2538226 14.1223242,23.2844037 L13.5535168,23.3333333 Z M9.93272171,8.12844037 L10.6360856,8.25688073 C10.9785933,8.31192661 11.3272171,8.35474006 11.675841,8.39755352 L12.3608563,8.48318043 C12.7522936,8.52599388 13.1498471,8.55045872 13.5535168,8.58103976 L14.1223242,8.617737 C14.5198777,8.617737 14.9235474,8.617737 15.3455657,8.64831804 L15.3455657,15.6513761 L8.56269113,15.6513761 C8.5757645,13.089534 8.91070215,10.5394871 9.55963303,8.06116208 L9.93272171,8.12844037 Z M16.5688073,15.6513761 L16.5688073,8.66666667 C16.9357798,8.66666667 17.3027523,8.66666667 17.6697248,8.62996942 L17.7920489,8.62996942 C18.3363914,8.62996942 18.8746177,8.55657492 19.4067278,8.50764526 L19.5657492,8.50764526 C20.0795107,8.45259939 20.5932722,8.3853211 21.0948012,8.31192661 L21.2844037,8.31192661 C21.6554536,8.254842 22.0224261,8.18960245 22.3853211,8.11620795 C23.0316806,10.592814 23.3645587,13.14077 23.3761468,15.7003058 L16.5688073,15.6513761 Z M21.7003058,6.94189602 L21.0214067,7.06422018 C20.6972477,7.11314985 20.3730887,7.1559633 20.0428135,7.19266055 L19.382263,7.27217125 C19.0152905,7.3088685 18.6360856,7.33333333 18.2629969,7.35779817 L17.6880734,7.40061162 C17.3211009,7.40061162 16.941896,7.40061162 16.5688073,7.40061162 L16.5688073,0 C18.7889908,0.415902141 20.7706422,3.05810398 22.0061162,6.88073394 L21.7003058,6.94189602 Z M15.3455657,0 L15.3455657,7.43730887 C14.9724771,7.43730887 14.6055046,7.43730887 14.2385321,7.43730887 L13.6880734,7.39449541 C13.3088685,7.39449541 12.9296636,7.34556575 12.5565749,7.30275229 L11.9143731,7.22324159 C11.5840979,7.18042813 11.2477064,7.14373089 10.9235474,7.08868502 L10.2629969,6.97247706 L9.90825688,6.90519878 C11.1437309,3.07033639 13.1253823,0.415902141 15.3455657,0 Z M10.2629969,24.9663609 L10.9235474,24.8501529 C11.2477064,24.8012232 11.5840979,24.7584098 11.9143731,24.7155963 L12.5565749,24.6360856 C12.9296636,24.5993884 13.3088685,24.5749235 13.6880734,24.5443425 L14.2385321,24.5015291 C14.6055046,24.5015291 14.9785933,24.5015291 15.3455657,24.5015291 L15.3455657,31.9143731 C13.1253823,31.4984709 11.1437309,28.8562691 9.90825688,25.0336391 L10.2629969,24.9663609 Z M16.5688073,31.9143731 L16.5688073,24.4770642 C16.941896,24.4770642 17.3149847,24.4770642 17.6880734,24.4770642 L18.2568807,24.5198777 C18.6299694,24.5198777 19.0091743,24.5688073 19.3761468,24.6116208 L20.0366972,24.6911315 C20.3669725,24.733945 20.6972477,24.7706422 21.0152905,24.8195719 L21.6941896,24.941896 L22,25.0030581 C20.7706422,28.8440367 18.7889908,31.4984709 16.5688073,31.9143731 Z M27.6941896,5.0030581 L27.4006116,5.1559633 L26.8440367,5.40672783 L26.1284404,5.70030581 L25.5168196,5.9266055 L24.7400612,6.17737003 L24.0917431,6.37308869 C23.8165138,6.44648318 23.5412844,6.51987768 23.2599388,6.58715596 C22.4097859,3.89602446 21.1926606,1.73088685 19.7370031,0.354740061 C22.790746,1.0970691 25.5582612,2.72226631 27.6941896,5.02752294 L27.6941896,5.0030581 Z M12.1712538,0.403669725 C10.5155347,2.15616727 9.31436665,4.2876105 8.67278287,6.6116208 C8.39143731,6.54434251 8.11620795,6.47706422 7.84097859,6.39755352 L7.2293578,6.21406728 C6.96024465,6.12844037 6.6911315,6.04281346 6.42813456,5.95718654 L5.81651376,5.74311927 C5.5637105,5.64525994 5.31702345,5.54536188 5.0764526,5.44342508 L4.5382263,5.19877676 L4.23853211,5.04587156 C6.37161957,2.75565326 9.12976893,1.14159361 12.1712538,0.403669725 Z M4.26911315,26.8623853 L4.56880734,26.7094801 L5.10703364,26.4648318 C5.34760449,26.3588175 5.59429154,26.2589195 5.8470948,26.1651376 L6.4587156,25.9510703 C6.72171254,25.8593272 6.98470948,25.7737003 7.25993884,25.6941896 L7.87155963,25.5107034 C8.14067278,25.4373089 8.42201835,25.3700306 8.70336391,25.2966361 C9.34494769,27.6206464 10.5461157,29.7520896 12.2018349,31.5045872 C9.16034997,30.7666633 6.40220061,29.1526036 4.26911315,26.8623853 Z M19.7125382,31.529052 C21.1681957,30.1529052 22.3853211,27.9877676 23.235474,25.2966361 C23.5168196,25.3639144 23.7981651,25.4311927 24.0672783,25.5107034 L24.7094801,25.7003058 L25.4862385,25.9571865 L26.0978593,26.1834862 L26.8195719,26.4770642 L27.3761468,26.7278287 L27.6697248,26.8807339 C25.530594,29.1770132 22.7634007,30.7935134 19.7125382,31.529052 Z" id="Combined-Shape"></path>
        </g>
    </g>
</svg>