<?xml version="1.0" encoding="UTF-8" standalone="no"?>
<svg width="171px" height="60px" viewBox="0 0 171 60" version="1.1" xmlns="http://www.w3.org/2000/svg" xmlns:xlink="http://www.w3.org/1999/xlink">
    <!-- Generator: Sketch 49 (51002) - http://www.bohemiancoding.com/sketch -->
    <title>Logo/Primary/Black</title>
    <desc>Created with Sketch.</desc>
    <defs></defs>
    <g id="Logo/Primary/Black" stroke="none" stroke-width="1" fill="none" fill-rule="evenodd">
        <g id="Logo/Primary/">
            <polygon id="Fill-1" fill="#121A22" points="0 42.3228814 6.16576271 42.3228814 6.16576271 7.79745763 0 7.79745763"></polygon>
            <polygon id="Fill-2" fill="#121A22" points="35.2813729 7.79781356 35.2813729 42.3227288 29.1156102 42.3227288 23.049 22.5445932 22.9513729 22.5445932 22.9513729 42.3227288 16.7856102 42.3227288 16.7856102 7.79781356 23.2956102 7.79781356 29.0164576 26.9352712 29.1156102 26.9352712 29.1156102 7.79781356"></polygon>
            <path d="M56.7093559,17.4657966 L56.7093559,16.0349492 C56.7093559,13.617661 55.4274915,12.2859661 53.9468136,12.2859661 C52.3685085,12.2859661 51.1857966,13.4208814 51.1857966,14.9991864 C51.1857966,16.478339 51.4802034,17.6132542 52.9110508,19.2408814 L59.0768136,26.2934237 C61.5424068,29.1047797 63.0708814,30.9790169 63.0708814,35.0732542 C63.0708814,40.0547797 58.8790169,42.8157966 53.9468136,42.8157966 C48.9657966,42.8157966 44.9702034,40.0049492 44.9702034,35.0732542 L44.9702034,31.4717288 L51.1857966,31.4717288 L51.1857966,34.6781695 C51.1857966,36.7990169 52.3685085,37.8347797 53.9468136,37.8347797 C55.4752881,37.8347797 56.7093559,36.6998644 56.7093559,34.6781695 C56.7093559,32.8532542 55.9685085,31.4717288 54.6861356,29.9930847 L49.5581695,24.7151186 C46.3018983,20.8690169 44.9203729,19.7839322 44.9203729,15.0490169 C44.9203729,10.3618983 48.6693559,7.35427119 53.9468136,7.35427119 C59.1749492,7.35427119 62.8741017,10.4615593 62.8741017,15.0490169 L62.8741017,17.4657966 L56.7093559,17.4657966 Z" id="Fill-3" fill="#121A22"></path>
            <polygon id="Fill-5" fill="#121A22" points="87.4695763 12.6814576 81.1070339 12.6814576 81.1070339 42.3229831 74.9412712 42.3229831 74.9412712 12.6814576 68.6280508 12.6814576 68.6280508 7.7980678 87.4695763 7.7980678"></polygon>
            <polygon id="Fill-7" fill="#121A22" points="141.358424 7.79781356 141.358424 42.3227288 135.192661 42.3227288 129.126051 22.5445932 129.028424 22.5445932 129.028424 42.3227288 122.862661 42.3227288 122.862661 7.79781356 129.372661 7.79781356 135.095034 26.9352712 135.192661 26.9352712 135.192661 7.79781356"></polygon>
            <polygon id="Fill-9" fill="#121A22" points="167.985814 12.6814576 161.622763 12.6814576 161.622763 42.3229831 155.457 42.3229831 155.457 12.6814576 149.14378 12.6814576 149.14378 7.7980678 167.985814 7.7980678"></polygon>
            <polygon id="Fill-11" fill="#121A22" points="94.7629831 49.9629661 92.704678 49.9629661 92.704678 59.5558475 90.7099322 59.5558475 90.7099322 49.9629661 88.6668814 49.9629661 88.6668814 48.3831356 94.7629831 48.3831356"></polygon>
            <polygon id="Fill-13" fill="#121A22" points="103.619593 48.3831864 103.619593 59.5558983 101.624339 59.5558983 101.624339 54.3053898 99.5182373 54.3053898 99.5182373 59.5558983 97.5229831 59.5558983 97.5229831 48.3831864 99.5182373 48.3831864 99.5182373 52.7245424 101.624339 52.7245424 101.624339 48.3831864"></polygon>
            <polygon id="Fill-15" fill="#121A22" points="108.742576 49.9798475 108.742576 52.7240847 110.769864 52.7240847 110.769864 54.3212034 108.742576 54.3212034 108.742576 57.959339 111.79139 57.959339 111.79139 59.5559492 106.747831 59.5559492 106.747831 48.3832373 111.567661 48.3832373 111.567661 49.9798475"></polygon>
            <path d="M118.061949,55.3424237 L117.455847,51.3356441 L117.407542,51.3356441 L116.785169,55.3424237 L118.061949,55.3424237 Z M118.382288,56.9547966 L116.449576,56.9547966 L116.067203,59.5561525 L114.184322,59.5561525 L116.482627,48.3829322 L118.476864,48.3829322 L120.775169,59.5561525 L118.780424,59.5561525 L118.382288,56.9547966 Z" id="Fill-17" fill="#121A22"></path>
            <polygon id="Fill-19" fill="#121A22" points="127.782559 49.9629661 125.723746 49.9629661 125.723746 59.5558475 123.729 59.5558475 123.729 49.9629661 121.685949 49.9629661 121.685949 48.3831356 127.782559 48.3831356"></polygon>
            <path d="M132.521695,53.3631356 L133.159322,53.3631356 C134.452373,53.3631356 134.803729,53.2029661 134.803729,51.575339 C134.803729,50.6814407 134.595763,49.9797458 133.813729,49.9797458 L132.521695,49.9797458 L132.521695,53.3631356 Z M135.058983,59.5558475 L133.159322,55.0548305 L132.521695,55.0548305 L132.521695,59.5558475 L130.542203,59.5558475 L130.542203,48.3831356 L133.877288,48.3831356 C135.79322,48.3831356 136.702373,49.7870339 136.702373,51.575339 C136.702373,53.2360169 135.984407,54.305339 135.026441,54.784322 L137.133051,59.5558475 L135.058983,59.5558475 Z" id="Fill-21" fill="#121A22"></path>
            <polygon id="Fill-23" fill="#121A22" points="141.680695 49.9798475 141.680695 52.7240847 143.707983 52.7240847 143.707983 54.3212034 141.680695 54.3212034 141.680695 57.959339 144.729508 57.959339 144.729508 59.5559492 139.685949 59.5559492 139.685949 48.3832373 144.506288 48.3832373 144.506288 49.9798475"></polygon>
            <path d="M155.901102,51.6234407 L155.901102,50.7447966 C155.901102,50.4107288 155.565508,49.8351356 154.991441,49.8351356 C154.288729,49.8351356 153.985169,50.4107288 153.985169,50.7447966 L153.985169,57.1942881 C153.985169,57.5283559 154.288729,58.1039492 154.991441,58.1039492 C155.565508,58.1039492 155.901102,57.5283559 155.901102,57.1942881 L155.901102,56.3156441 L157.912627,56.3156441 L157.912627,57.1942881 C157.912627,58.327678 157.001949,59.6990339 154.991441,59.6990339 C152.78822,59.6990339 151.957881,58.327678 151.957881,57.2095424 L151.957881,50.7447966 C151.957881,49.6129322 152.78822,48.2400508 154.991441,48.2400508 C157.001949,48.2400508 157.912627,49.6129322 157.912627,50.7447966 L157.912627,51.6234407 L155.901102,51.6234407 Z" id="Fill-25" fill="#121A22"></path>
            <path d="M164.391712,50.7450508 C164.391712,50.4104746 164.072898,49.8043729 163.497814,49.8043729 C162.794593,49.8043729 162.508831,50.4104746 162.508831,50.7135254 L162.508831,57.1457288 C162.508831,57.5128475 162.794593,58.1036949 163.497814,58.1036949 C164.072898,58.1036949 164.391712,57.4803051 164.391712,57.1457288 L164.391712,50.7450508 Z M166.386458,50.7292881 L166.386458,57.1772542 C166.386458,58.3274237 165.492559,59.6987797 163.497814,59.6987797 C161.294593,59.6987797 160.512559,58.3274237 160.512559,57.1772542 L160.512559,50.7292881 C160.512559,49.5801356 161.294593,48.2403051 163.497814,48.2403051 C165.492559,48.2403051 166.386458,49.5801356 166.386458,50.7292881 Z" id="Fill-28" fill="#121A22"></path>
            <polygon id="Fill-30" fill="#121A22" points="168.694068 59.6989831 170.688814 59.6989831 170.688814 57.7042373 168.694068 57.7042373"></polygon>
            <g id="Rocket" transform="translate(89.000000, 0.000000)" fill="#000000">
                <path d="M4.23308475,32.772661 C4.08867797,33.1235085 3.6859661,33.2913051 3.33461017,33.1463898 C2.98376271,33.0014746 2.8159661,32.5992712 2.96088136,32.2479153 L2.97257627,32.2204576 C3.11749153,31.8691017 3.51969492,31.7018136 3.87054237,31.8462203 C4.22240678,31.9911356 4.38969492,32.393339 4.24427119,32.7446949 L4.23308475,32.772661 Z M2.53477966,36.892322 C2.38986441,37.2431695 1.98766102,37.4109661 1.63681356,37.2660508 C1.28545763,37.1211356 1.11766102,36.7189322 1.26257627,36.3675763 L1.27427119,36.3396102 C1.41918644,35.9887627 1.82138983,35.8209661 2.17223729,35.9658814 C2.52359322,36.1102881 2.69138983,36.513 2.54647458,36.8638475 L2.53477966,36.892322 Z M2.17477966,29.1792712 C1.9439322,29.6170678 1.72986441,30.0706271 1.53816949,30.5363898 C0.0157966102,34.2284237 0.0188474576,38.2367288 0.58579661,41.7421525 C0.623423729,41.9689322 0.869016949,42.0879153 1.06732203,41.9968983 L5.74528814,30.6513051 L2.17477966,29.1792712 Z" id="Fill-32"></path>
                <path d="M20.0012881,38.1478983 C18.4214576,41.9797627 15.4428136,44.893322 12.4606102,47.0004407 C12.2551864,47.1448475 11.9684068,47.024339 11.9262034,46.7802712 C11.5107797,44.394 11.3470508,41.7575593 11.7456949,39.1384068 L6.33145763,36.8975593 C5.05925424,38.6324746 3.51857627,40.1172203 1.92552542,41.3594237 L6.25366102,30.8609492 L20.5056949,36.7363729 C20.3597627,37.2123051 20.1929831,37.6821356 20.0012881,38.1478983" id="Fill-33"></path>
                <path d="M9.82137288,18.1135424 L9.84679661,18.1242203 C10.1976441,18.2686271 10.3649322,18.671339 10.2205254,19.0221864 C10.0756102,19.3735424 9.67340678,19.5408305 9.32255932,19.3959153 L9.29662712,19.3857458 C8.94527119,19.2408305 8.77798305,18.8386271 8.92238983,18.4872712 C9.06781356,18.1359153 9.47001695,17.9686271 9.82137288,18.1135424 M6.52340678,28.9654068 C6.37849153,29.3167627 5.97628814,29.4840508 5.6249322,29.3391356 L5.599,29.3289661 C5.24815254,29.1840508 5.08086441,28.781339 5.22577966,28.4304915 C5.37018644,28.0791356 5.77289831,27.9118475 6.12425424,28.0567627 L6.14916949,28.0669322 C6.50052542,28.2118475 6.66781356,28.6140508 6.52340678,28.9654068 M10.2434068,29.7550678 L10.2713729,29.7662542 C10.6222203,29.9111695 10.7900169,30.3138814 10.6451017,30.6647288 C10.5006949,31.0160847 10.0979831,31.1833729 9.74713559,31.0384576 L9.71916949,31.0272712 C9.36781356,30.8823559 9.20001695,30.4796441 9.3449322,30.1287966 C9.48984746,29.7774407 9.89255932,29.6101525 10.2434068,29.7550678 M14.3630678,31.4533729 L14.3910339,31.4645593 C14.7423898,31.6094746 14.909678,32.011678 14.7652712,32.3630339 C14.6203559,32.7143898 14.2176441,32.881678 13.8662881,32.7372712 L13.838322,32.7255763 C13.4874746,32.580661 13.319678,32.1784576 13.4645932,31.8271017 C13.6095085,31.4757458 14.0117119,31.3084576 14.3630678,31.4533729 M18.4852712,33.1526949 L18.5106949,33.1633729 C18.8640847,33.3087966 19.0288305,33.7104915 18.8844237,34.061339 C18.7395085,34.4126949 18.3398475,34.581 17.9864576,34.4355763 L17.9605254,34.4248983 C17.6091695,34.2799831 17.4418814,33.8777797 17.5862881,33.5264237 C17.7317119,33.1755763 18.1339153,33.0077797 18.4852712,33.1526949 M22.9913729,23.5430339 L23.019339,23.5547288 C23.3701864,23.6996441 23.5384915,24.1018475 23.3930678,24.4532034 C23.248661,24.8040508 22.8459492,24.9718475 22.4951017,24.8269322 L22.4671356,24.8152373 C22.1157797,24.6708305 21.9484915,24.2681186 22.0934068,23.9172712 C22.2378136,23.5659153 22.6405254,23.3986271 22.9913729,23.5430339 M2.44340678,28.6943898 L20.659,36.2045593 C21.0235763,34.8662542 21.2157797,33.5045593 21.2803559,32.1555763 C21.2839153,32.1484576 21.2910339,32.1448983 21.2930678,32.1398136 C22.4823898,30.7491356 23.5135763,29.1733729 24.2432373,27.4023559 C24.7278136,26.2272712 25.0598475,25.0181186 25.2642542,23.8074407 L19.8673051,21.5823559 C20.0061186,22.4940508 19.8510339,23.4632034 19.3476441,24.3515085 C18.4028983,26.0157458 16.3979831,26.8501525 14.5481525,26.3467627 C11.8339153,25.6084576 10.5606949,22.5443898 11.9467966,20.1001525 C12.2417119,19.5789661 12.6403559,19.1391356 13.1066271,18.7948983 L7.55205085,16.5052373 C6.84018644,17.5099831 6.22442373,18.5986271 5.73984746,19.7742203 C4.92679661,21.7460847 4.54645763,23.8099831 4.45798305,25.8367627 L4.4569661,25.8393051 C3.709,26.7154068 3.02510169,27.6662542 2.44340678,28.6943898" id="Fill-34"></path>
                <path d="M25.351661,23.2479661 L19.7106441,20.9222034 C19.7055593,20.9054237 19.7025085,20.8922034 19.6938644,20.8769492 L23.8455593,10.8055932 C24.4303051,12.5440678 25.0114915,14.6862712 25.3196271,17.0161017 C25.5825085,19.0057627 25.6481017,21.1286441 25.351661,23.2479661" id="Fill-35"></path>
                <path d="M21.6865763,13.0531525 C21.5421695,13.4045085 21.1394576,13.5717966 20.7881017,13.4268814 C20.4372542,13.2824746 20.2694576,12.8797627 20.4143729,12.5289153 L20.4260678,12.5009492 C20.5709831,12.1495932 20.9731864,11.9823051 21.3240339,12.1267119 C21.6758983,12.2716271 21.8431864,12.6738305 21.6977627,13.0251864 L21.6865763,13.0531525 Z M19.9872542,17.1753559 C19.842339,17.5262034 19.4401356,17.694 19.0892881,17.5490847 C18.7374237,17.404678 18.5701356,17.0019661 18.7150508,16.6506102 L18.7267458,16.6231525 C18.8711525,16.2717966 19.2738644,16.104 19.6247119,16.2489153 C19.9760678,16.3938305 20.1438644,16.7960339 19.9989492,17.1473898 L19.9872542,17.1753559 Z M22.1564068,6.66467797 L23.8394576,5.10823729 L23.0147119,3.28840678 L23.0533559,2.43823729 C23.522678,2.56332203 24.0265763,2.33044068 24.2167458,1.86976271 C24.4242034,1.36586441 24.1821695,0.789762712 23.6808136,0.583322034 C23.1774237,0.375355932 22.602339,0.614847458 22.3948814,1.11874576 C22.2097966,1.56671186 22.3872542,2.0680678 22.7838644,2.31823729 L22.7360678,3.34332203 L23.5079322,5.04010169 L21.9286102,6.50247458 C21.1272542,6.77044068 16.5494576,8.36349153 12.2965763,11.6467119 C10.7081017,12.8706102 9.16589831,14.3304407 7.88352542,16.0465424 L13.682678,18.4373898 C14.6081017,17.9614576 15.7033559,17.8175593 16.7472542,18.1023051 C17.9411525,18.4272203 18.8548814,19.2001017 19.3882712,20.173322 L23.5730169,10.023661 C22.9577627,8.32281356 22.3836949,7.11569492 22.1564068,6.66467797 Z" id="Fill-36"></path>
            </g>
        </g>
    </g>
</svg>