<?xml version="1.0" encoding="UTF-8" standalone="no"?>
<svg width="64px" height="64px" viewBox="0 0 64 64" version="1.1" xmlns="http://www.w3.org/2000/svg" xmlns:xlink="http://www.w3.org/1999/xlink">
    <!-- Generator: Sketch 49 (51002) - http://www.bohemiancoding.com/sketch -->
    <title>Icon/Navigation/Search</title>
    <desc>Created with Sketch.</desc>
    <defs></defs>
    <g id="Icon/Navigation/Search" stroke="none" stroke-width="1" fill="none" fill-rule="evenodd">
        <g id="icon---search" transform="translate(1.000000, 0.000000)" fill="#000000" fill-rule="nonzero">
            <path d="M61.0940082,57.6309832 L46.073652,41.9689774 C49.9356495,37.3662292 52.0516607,31.5750302 52.0516607,25.5461409 C52.0516607,11.460221 40.6207686,0 26.5708971,0 C12.5210257,0 1.09013354,11.460221 1.09013354,25.5461409 C1.09013354,39.6320609 12.5210257,51.0922818 26.5708971,51.0922818 C31.8454152,51.0922818 36.8717728,49.4973141 41.1691589,46.469541 L56.3036246,62.2503919 C56.9362123,62.909038 57.7870482,63.2722375 58.6988164,63.2722375 C59.5618388,63.2722375 60.3805468,62.9423591 61.0020559,62.3425801 C62.3226242,61.0686052 62.3647228,58.9560504 61.0940082,57.6309832 Z M26.5708971,6.66421067 C36.9559701,6.66421067 45.404505,15.1344224 45.404505,25.5461409 C45.404505,35.9578594 36.9559701,44.4280711 26.5708971,44.4280711 C16.1858242,44.4280711 7.73728926,35.9578594 7.73728926,25.5461409 C7.73728926,15.1344224 16.1858242,6.66421067 26.5708971,6.66421067 Z" id="Shape"></path>
        </g>
    </g>
</svg>