<?xml version="1.0" encoding="UTF-8" standalone="no"?>
<svg width="96px" height="194px" viewBox="0 0 96 194" version="1.1" xmlns="http://www.w3.org/2000/svg" xmlns:xlink="http://www.w3.org/1999/xlink">
    <!-- Generator: Sketch 49 (51002) - http://www.bohemiancoding.com/sketch -->
    <title>Logo/Rocket/Red</title>
    <desc>Created with Sketch.</desc>
    <defs>
        <polygon id="path-1" points="0 0.5184 20.682 0.5184 20.682 48.7607045 0 48.7607045"></polygon>
        <polygon id="path-3" points="0.7132 0.868 62.3160426 0.868 62.3160426 74.7034 0.7132 74.7034"></polygon>
    </defs>
    <g id="Logo/Rocket/Red" stroke="none" stroke-width="1" fill="none" fill-rule="evenodd">
        <g id="Page-1">
            <path d="M5.1906,186.4198 C4.9976,186.4198 4.8016,186.3818 4.6156,186.3038 C3.8466,185.9868 3.4816,185.1058 3.7996,184.3388 L15.6466,155.7418 C15.9636,154.9738 16.8556,154.6068 17.6116,154.9268 C18.3796,155.2438 18.7456,156.1258 18.4266,156.8928 L6.5806,185.4888 C6.3406,186.0688 5.7806,186.4198 5.1906,186.4198" id="Fill-1" fill="#ED1651"></path>
            <path d="M21.3995,193.1317 C21.2065,193.1317 21.0105,193.0947 20.8245,193.0167 C20.0555,192.6987 19.6905,191.8177 20.0095,191.0517 L31.8535,162.4557 C32.1705,161.6887 33.0545,161.3217 33.8185,161.6417 C34.5875,161.9587 34.9525,162.8407 34.6335,163.6077 L22.7895,192.2017 C22.5495,192.7807 21.9895,193.1317 21.3995,193.1317" id="Fill-3" fill="#ED1651"></path>
            <path d="M16.09,183.0281 C15.897,183.0281 15.701,182.9911 15.514,182.9131 C14.746,182.5961 14.38,181.7151 14.699,180.9481 L20.69,166.4851 C21.009,165.7151 21.895,165.3581 22.655,165.6711 C23.424,165.9881 23.789,166.8701 23.47,167.6361 L17.48,182.0981 C17.24,182.6771 16.68,183.0281 16.09,183.0281" id="Fill-5" fill="#ED1651"></path>
            <g id="Group-9" transform="translate(0.000000, 108.132000)">
                <mask id="mask-2" fill="white">
                    <use xlink:href="#path-1"></use>
                </mask>
                <g id="Clip-8"></g>
                <path d="M15.006,14.0104 C14.462,15.3284 12.951,15.9574 11.633,15.4134 C10.315,14.8704 9.686,13.3594 10.229,12.0404 L10.273,11.9364 C10.816,10.6164 12.327,9.9894 13.646,10.5314 C14.964,11.0754 15.593,12.5864 15.049,13.9054 L15.006,14.0104 Z M8.629,29.4784 C8.086,30.7964 6.574,31.4254 5.256,30.8814 C3.938,30.3384 3.309,28.8264 3.853,27.5084 L3.896,27.4034 C4.439,26.0844 5.95,25.4554 7.269,25.9994 C8.587,26.5434 9.216,28.0544 8.672,29.3724 L8.629,29.4784 Z M7.277,0.5184 C6.41,2.1614 5.608,3.8644 4.887,5.6134 C-0.828,19.4764 -0.818,34.5254 1.312,47.6874 C1.452,48.5394 2.375,48.9874 3.119,48.6454 L20.682,6.0444 L7.277,0.5184 Z" id="Fill-7" fill="#ED1651" mask="url(#mask-2)"></path>
            </g>
            <path d="M74.2091,142.325 C68.2771,156.713 57.0961,167.65 45.8971,175.564 C45.1251,176.106 44.0501,175.652 43.8911,174.737 C42.3301,165.778 41.7171,155.879 43.2121,146.044 L22.8841,137.63 C18.1071,144.144 12.3221,149.718 6.3421,154.384 L22.5931,114.964 L76.1041,137.025 C75.5571,138.811 74.9311,140.576 74.2091,142.325" id="Fill-10" fill="#ED1651"></path>
            <path d="M35.9874,67.1014 L36.0824,67.1414 C37.4004,67.6844 38.0294,69.1964 37.4864,70.5144 C36.9424,71.8324 35.4314,72.4614 34.1134,71.9174 L34.0174,71.8784 C32.6994,71.3344 32.0704,69.8244 32.6134,68.5054 C33.1574,67.1874 34.6684,66.5584 35.9874,67.1014 M23.6034,107.8474 C23.0604,109.1654 21.5494,109.7944 20.2304,109.2504 L20.1354,109.2114 C18.8174,108.6684 18.1884,107.1574 18.7314,105.8384 C19.2754,104.5204 20.7864,103.8914 22.1044,104.4354 L22.2004,104.4744 C23.5184,105.0174 24.1474,106.5294 23.6034,107.8474 M37.5724,110.8114 L37.6774,110.8554 C38.9964,111.3984 39.6254,112.9104 39.0814,114.2284 C38.5384,115.5464 37.0264,116.1754 35.7084,115.6314 L35.6024,115.5884 C34.2844,115.0444 33.6554,113.5344 34.1994,112.2154 C34.7434,110.8974 36.2544,110.2684 37.5724,110.8114 M53.0404,117.1884 L53.1454,117.2324 C54.4644,117.7754 55.0924,119.2874 54.5494,120.6054 C54.0054,121.9234 52.4944,122.5524 51.1754,122.0084 L51.0704,121.9654 C49.7524,121.4214 49.1234,119.9114 49.6674,118.5924 C50.2104,117.2744 51.7214,116.6454 53.0404,117.1884 M68.5174,123.5694 L68.6134,123.6084 C69.9404,124.1564 70.5604,125.6634 70.0164,126.9814 C69.4724,128.3004 67.9714,128.9334 66.6434,128.3854 L66.5484,128.3464 C65.2294,127.8024 64.6004,126.2914 65.1444,124.9724 C65.6874,123.6554 67.1994,123.0254 68.5174,123.5694 M85.4374,87.4884 L85.5434,87.5324 C86.8614,88.0754 87.4904,89.5864 86.9464,90.9054 C86.4034,92.2234 84.8914,92.8524 83.5734,92.3084 L83.4674,92.2654 C82.1494,91.7214 81.5204,90.2104 82.0644,88.8924 C82.6074,87.5744 84.1194,86.9454 85.4374,87.4884 M8.2854,106.8304 L76.6814,135.0274 C78.0494,130.0024 78.7704,124.8904 79.0134,119.8264 C79.0254,119.7974 79.0524,119.7864 79.0604,119.7674 C83.5274,114.5444 87.3964,108.6284 90.1384,101.9794 C91.9584,97.5654 93.2034,93.0264 93.9704,88.4804 L73.7074,80.1264 C74.2294,83.5494 73.6464,87.1884 71.7574,90.5224 C68.2084,96.7724 60.6794,99.9054 53.7354,98.0144 C43.5434,95.2444 38.7634,83.7394 43.9664,74.5604 C45.0754,72.6034 46.5724,70.9524 48.3224,69.6614 L27.4664,61.0634 C24.7944,64.8344 22.4824,68.9224 20.6634,73.3364 C17.6104,80.7414 16.1814,88.4904 15.8494,96.0994 L15.8454,96.1094 C13.0364,99.4004 10.4694,102.9684 8.2854,106.8304" id="Fill-12" fill="#ED1651"></path>
            <path d="M94.2999,86.3807 L73.1189,77.6487 C73.1009,77.5847 73.0879,77.5347 73.0559,77.4777 L88.6459,39.6627 C90.8389,46.1897 93.0229,54.2327 94.1779,62.9807 C95.1659,70.4517 95.4119,78.4227 94.2999,86.3807" id="Fill-14" fill="#ED1651"></path>
            <g id="Group-18" transform="translate(28.000000, 0.132000)">
                <mask id="mask-4" fill="white">
                    <use xlink:href="#path-3"></use>
                </mask>
                <g id="Clip-17"></g>
                <path d="M52.5382,47.9704 C51.9952,49.2884 50.4832,49.9174 49.1652,49.3734 C47.8472,48.8304 47.2182,47.3194 47.7622,46.0004 L47.8052,45.8954 C48.3492,44.5764 49.8592,43.9484 51.1782,44.4914 C52.4962,45.0354 53.1252,46.5464 52.5822,47.8654 L52.5382,47.9704 Z M46.1572,63.4474 C45.6142,64.7654 44.1022,65.3944 42.7842,64.8514 C41.4662,64.3074 40.8372,62.7964 41.3812,61.4784 L41.4242,61.3724 C41.9682,60.0544 43.4782,59.4254 44.7972,59.9694 C46.1152,60.5124 46.7442,62.0244 46.2012,63.3424 L46.1572,63.4474 Z M54.3012,23.9834 L60.6232,18.1384 L57.5262,11.3074 L57.6692,8.1134 C59.4322,8.5824 61.3232,7.7084 62.0362,5.9794 C62.8162,4.0874 61.9082,1.9244 60.0262,1.1494 C58.1352,0.3684 55.9762,1.2674 55.1962,3.1584 C54.5032,4.8404 55.1682,6.7244 56.6592,7.6624 L56.4802,11.5124 L59.3762,17.8824 L53.4462,23.3734 C50.4372,24.3794 33.2512,30.3614 17.2812,42.6904 C11.3182,47.2844 5.5262,52.7664 0.7132,59.2094 L22.4862,68.1854 C25.9612,66.3994 30.0732,65.8594 33.9922,66.9274 C38.4742,68.1494 41.9052,71.0504 43.9092,74.7034 L59.6202,36.5934 C57.3112,30.2094 55.1562,25.6774 54.3012,23.9834 Z" id="Fill-16" fill="#ED1651" mask="url(#mask-4)"></path>
            </g>
        </g>
    </g>
</svg>