<?xml version="1.0" encoding="UTF-8" standalone="no"?>
<svg width="128px" height="128px" viewBox="0 0 128 128" version="1.1" xmlns="http://www.w3.org/2000/svg" xmlns:xlink="http://www.w3.org/1999/xlink">
    <!-- Generator: Sketch 49 (51002) - http://www.bohemiancoding.com/sketch -->
    <title>Icon/Social Media/Facebook</title>
    <desc>Created with Sketch.</desc>
    <defs></defs>
    <g id="Icon/Social-Media/Facebook" stroke="none" stroke-width="1" fill="none" fill-rule="evenodd">
        <g id="Icon-Facebook-black" fill="#000000" fill-rule="nonzero">
            <path d="M112,0 L16,0 C7.176,0 0,7.176 0,16 L0,112 C0,120.824 7.176,128 16,128 L64,128 L64,84 L48,84 L48,64 L64,64 L64,48 C64,34.744 74.744,24 88,24 L104,24 L104,44 L96,44 C91.584,44 88,43.584 88,48 L88,64 L108,64 L100,84 L88,84 L88,128 L112,128 C120.824,128 128,120.824 128,112 L128,16 C128,7.176 120.824,0 112,0 Z" id="Shape"></path>
        </g>
    </g>
</svg>