<?xml version="1.0" encoding="UTF-8" standalone="no"?>
<svg width="128px" height="128px" viewBox="0 0 128 128" version="1.1" xmlns="http://www.w3.org/2000/svg" xmlns:xlink="http://www.w3.org/1999/xlink">
    <!-- Generator: Sketch 49 (51002) - http://www.bohemiancoding.com/sketch -->
    <title>Icon/Social Media/Instagram</title>
    <desc>Created with Sketch.</desc>
    <defs></defs>
    <g id="Icon/Social-Media/Instagram" stroke="none" stroke-width="1" fill="none" fill-rule="evenodd">
        <g id="Icon-Instagram-black" fill="#000000" fill-rule="nonzero">
            <path d="M88,0 L40,0 C17.912,0 0,17.912 0,40 L0,88 C0,110.088 17.912,128 40,128 L88,128 C110.088,128 128,110.088 128,88 L128,40 C128,17.912 110.088,0 88,0 Z M116,88 C116,103.44 103.44,116 88,116 L40,116 C24.56,116 12,103.44 12,88 L12,40 C12,24.56 24.56,12 40,12 L88,12 C103.44,12 116,24.56 116,40 L116,88 Z" id="Shape"></path>
            <path d="M64,32 C46.328,32 32,46.328 32,64 C32,81.672 46.328,96 64,96 C81.672,96 96,81.672 96,64 C96,46.328 81.672,32 64,32 Z M64,84 C52.976,84 44,75.024 44,64 C44,52.968 52.976,44 64,44 C75.024,44 84,52.968 84,64 C84,75.024 75.024,84 64,84 Z" id="Shape"></path>
            <circle id="Oval" cx="98.4" cy="29.6" r="4.264"></circle>
        </g>
    </g>
</svg>