<?xml version="1.0" encoding="UTF-8" standalone="no"?>
<svg width="128px" height="128px" viewBox="0 0 128 128" version="1.1" xmlns="http://www.w3.org/2000/svg" xmlns:xlink="http://www.w3.org/1999/xlink">
    <!-- Generator: Sketch 49 (51002) - http://www.bohemiancoding.com/sketch -->
    <title>Icon/Social Media/Twitter</title>
    <desc>Created with Sketch.</desc>
    <defs></defs>
    <g id="Icon/Social-Media/Twitter" stroke="none" stroke-width="1" fill="none" fill-rule="evenodd">
        <g id="Icon-Twitter-black" transform="translate(0.000000, 12.000000)" fill="#000000" fill-rule="nonzero">
            <path d="M128,12.312 C123.24,14.4 118.168,15.784 112.88,16.456 C118.32,13.208 122.472,8.104 124.424,1.952 C119.352,4.976 113.752,7.112 107.784,8.304 C102.968,3.176 96.104,0 88.616,0 C74.088,0 62.392,11.792 62.392,26.248 C62.392,28.328 62.568,30.328 63,32.232 C41.184,31.168 21.88,20.712 8.912,4.784 C6.648,8.712 5.32,13.208 5.32,18.048 C5.32,27.136 10,35.192 16.976,39.856 C12.76,39.776 8.624,38.552 5.12,36.624 C5.12,36.704 5.12,36.808 5.12,36.912 C5.12,49.664 14.216,60.256 26.144,62.696 C24.008,63.28 21.68,63.56 19.264,63.56 C17.584,63.56 15.888,63.464 14.296,63.112 C17.696,73.504 27.344,81.144 38.816,81.392 C29.888,88.376 18.552,92.584 6.28,92.584 C4.128,92.584 2.064,92.488 -5.68434189e-14,92.224 C11.624,99.72 25.4,104 40.256,104 C88.544,104 114.944,64 114.944,29.328 C114.944,28.168 114.904,27.048 114.848,25.936 C120.056,22.24 124.432,17.624 128,12.312 Z" id="Shape"></path>
        </g>
    </g>
</svg>