<?xml version="1.0" encoding="UTF-8" standalone="no"?>
<svg width="200px" height="200px" viewBox="0 0 200 200" version="1.1" xmlns="http://www.w3.org/2000/svg" xmlns:xlink="http://www.w3.org/1999/xlink">
    <!-- Generator: Sketch 49 (51002) - http://www.bohemiancoding.com/sketch -->
    <title>Logo/Circular/Black</title>
    <desc>Created with Sketch.</desc>
    <defs>
        <polygon id="path-1" points="0 0.439689119 198.525181 0.439689119 198.525181 198.963731 0 198.963731"></polygon>
    </defs>
    <g id="Logo/Circular/Black" stroke="none" stroke-width="1" fill="none" fill-rule="evenodd">
        <g transform="translate(0.500000, 0.000000)">
            <g id="Group-3" transform="translate(0.000000, 0.596891)">
                <mask id="mask-2" fill="white">
                    <use xlink:href="#path-1"></use>
                </mask>
                <g id="Clip-2"></g>
                <path d="M99.2630052,3.22932642 C46.0681865,3.22932642 2.78943005,46.5060104 2.78943005,99.700829 C2.78943005,152.895648 46.0681865,196.173368 99.2630052,196.173368 C152.457824,196.173368 195.735544,152.895648 195.735544,99.700829 C195.735544,46.5060104 152.457824,3.22932642 99.2630052,3.22932642 M99.2630052,198.964041 C44.5282902,198.964041 -0.000207253886,154.435544 -0.000207253886,99.700829 C-0.000207253886,44.9681865 44.5282902,0.439689119 99.2630052,0.439689119 C153.996684,0.439689119 198.525181,44.9681865 198.525181,99.700829 C198.525181,154.435544 153.996684,198.964041 99.2630052,198.964041" id="Fill-1" fill="#000000" mask="url(#mask-2)"></path>
            </g>
            <path d="M81.4784456,156.680518 L81.8017617,156.765492 C82.099171,156.874301 82.2732642,156.944767 82.4784456,156.98 C87.9344041,158.609016 93.5250777,159.416269 99.2629016,159.416269 C131.874301,159.416269 158.407979,132.896062 158.407979,100.298135 C158.407979,67.7012435 131.874301,41.1810363 99.2629016,41.1810363 C66.6649741,41.1810363 40.1447668,67.7012435 40.1447668,100.298135 C40.1447668,121.791399 51.8204145,141.603834 70.6173057,152.002798 C70.9064249,152.173782 71.1841451,152.324041 71.4369948,152.451503 C71.7540933,152.636995 71.9893264,152.754093 72.2473575,152.872228 C73.3934715,153.471192 74.4680829,153.983109 75.5965803,154.438031 C75.9758549,154.648394 76.1603109,154.730259 76.3250777,154.773782 L76.6888083,154.929223 C76.8214508,155.007979 76.9986528,155.078446 77.2297409,155.141658 C78.4618653,155.667047 79.5603109,156.067047 80.7768912,156.434922 C81.0836269,156.56342 81.2929534,156.628705 81.4784456,156.680518 M99.2629016,162.205907 C93.2525389,162.205907 87.3924352,161.361347 81.8432124,159.690881 C81.6287047,159.66601 81.3053886,159.554093 80.9665285,159.429741 L80.9354404,159.423523 C80.5561658,159.323005 80.1810363,159.214197 79.8007254,159.042176 C78.645285,158.704352 77.445285,158.26601 76.299171,157.764456 C76.0546114,157.71057 75.7271503,157.582073 75.4193782,157.416269 C75.060829,157.30228 74.7022798,157.137513 74.3520207,156.925078 C73.4141969,156.566528 72.2597927,156.026632 71.022487,155.375855 C70.7395855,155.250466 70.4162694,155.088808 70.0919171,154.896062 C69.8691192,154.787254 69.5333679,154.60487 69.2276684,154.421451 C49.5820725,143.554093 37.3551295,122.80487 37.3551295,100.298135 C37.3551295,66.1634197 65.1271503,38.391399 99.2629016,38.391399 C133.413161,38.391399 161.197617,66.1634197 161.197617,100.298135 C161.197617,134.434922 133.413161,162.205907 99.2629016,162.205907" id="Fill-4" fill="#000000"></path>
            <polygon id="Fill-6" fill="#000000" points="44.7010363 143.153368 42.3621762 139.52228 25.4481865 150.42487 23.180829 146.907772 40.0937824 136.005181 37.7715026 132.403109 40.5580311 130.607254 47.4865285 141.358549"></polygon>
            <polygon id="Fill-8" fill="#000000" points="59.2108808 152.871917 43.2430052 170.025285 40.180829 167.172435 47.684456 159.111295 44.4512953 156.099896 36.9466321 164.162073 33.884456 161.312332 49.8512953 144.158964 52.9145078 147.008705 46.7103627 153.675026 49.942487 156.686425 56.1487047 150.019067"></polygon>
            <polygon id="Fill-10" fill="#000000" points="64.9507772 160.350466 62.1321244 165.369119 65.8388601 167.449948 64.1994819 170.368083 60.4948187 168.289326 56.7601036 174.942176 62.3373057 178.070674 60.6979275 180.990881 51.4740933 175.813679 62.9393782 155.381554 71.753886 160.328705 70.1165803 163.248912"></polygon>
            <path d="M76.6766839,177.530881 L77.9637306,169.13399 L77.8683938,169.103938 L74.1202073,176.735026 L76.6766839,177.530881 Z M76.3098446,180.957824 L72.4435233,179.753679 L70.0518135,184.722591 L66.2839378,183.546425 L77.8569948,162.613782 L81.8518135,163.859378 L79.480829,187.662487 L75.4860104,186.417927 L76.3098446,180.957824 Z" id="Fill-12" fill="#000000"></path>
            <polygon id="Fill-14" fill="#000000" points="99.0960622 169.785181 94.7965803 169.373782 92.8763731 189.409016 88.7084974 189.009016 90.6287047 168.972746 86.3613472 168.564456 86.6774093 165.264974 99.4141969 166.482591"></polygon>
            <path d="M108.115855,176.176891 L109.441244,175.98829 C112.125181,175.610052 112.807047,175.173782 112.32829,171.795544 C112.06715,169.940622 111.430881,168.545803 109.808083,168.773782 L107.124145,169.153057 L108.115855,176.176891 Z M115.199793,188.286736 L109.937617,179.501244 C109.374922,179.58 108.779067,179.663938 108.612228,179.688808 L109.933472,189.030777 L105.822591,189.611088 L102.547979,166.420415 L109.471295,165.442176 C113.448497,164.881554 115.747979,167.529223 116.271295,171.236995 C116.759378,174.683627 115.58114,177.113679 113.733472,178.389326 L119.506528,187.676373 L115.199793,188.286736 Z" id="Fill-16" fill="#000000"></path>
            <polygon id="Fill-18" fill="#000000" points="123.887565 165.107254 125.972539 170.474093 129.933161 168.935233 131.146632 172.054404 127.184974 173.593264 129.948705 180.707254 135.907254 178.391192 137.119689 181.50829 127.260622 185.338342 118.774611 163.505181 128.196373 159.846114 129.408808 162.963212"></polygon>
            <path d="M149.671917,152.885078 L148.440829,151.51513 C147.970363,150.994922 146.639793,150.570052 145.744456,151.375233 C144.649119,152.359689 144.98487,153.680933 145.454301,154.203212 L154.501969,164.257098 C154.973472,164.780415 156.253264,165.248808 157.346528,164.265389 C158.243938,163.459171 157.96,162.094404 157.489534,161.571088 L156.256373,160.203212 L159.393161,157.380415 L160.624249,158.74829 C162.214922,160.514093 162.723731,163.932746 159.585907,166.752435 C156.153782,169.844663 152.932021,168.869534 151.364145,167.128601 L142.292642,157.048808 C140.703005,155.283005 140.070881,151.975233 143.505078,148.886114 C146.640829,146.063316 149.983834,146.926528 151.574508,148.69544 L152.808705,150.06228 L149.671917,152.885078 Z" id="Fill-20" fill="#000000"></path>
            <path d="M158.838446,138.993057 C158.259171,138.593057 156.832228,138.417927 156.145181,139.407565 C155.305803,140.62 156.010466,141.837617 156.530674,142.200311 L167.613575,149.885285 C168.245699,150.324663 169.608394,150.53399 170.445699,149.324663 C171.13171,148.336062 170.441554,147.041762 169.864352,146.637617 L158.838446,138.993057 Z M161.191813,135.536062 L172.302694,143.240725 C174.283005,144.613782 175.578342,147.793057 173.195959,151.231399 C170.563834,155.024145 167.265389,154.735026 165.286114,153.361969 L154.175233,145.657306 C152.195959,144.284249 150.820829,141.33399 153.450881,137.538135 C155.835337,134.099793 159.212539,134.163005 161.191813,135.536062 Z" id="Fill-22" fill="#000000"></path>
            <polygon id="Fill-24" fill="#000000" points="176.432746 136.764663 178.134301 132.942902 181.955026 134.645492 180.254508 138.465181"></polygon>
            <polygon id="Fill-26" fill="#000000" points="58.1026943 46.6790674 54.8674611 49.3288083 40.0280829 31.2117098 43.2633161 28.5619689"></polygon>
            <polygon id="Fill-28" fill="#000000" points="62.7690155 16.684456 73.6146114 37.4533679 69.9068394 39.3901554 60.0425907 29.3984456 59.9835233 29.4295337 66.1980311 41.326943 62.4881865 43.2637306 51.6425907 22.4937824 55.5586528 20.4492228 65.0125389 30.1632124 65.0726425 30.1321244 59.059171 18.6202073"></polygon>
            <path d="M80.7184456,17.8912953 L80.485285,16.9503627 C80.0925389,15.3596891 79.0293264,14.6902591 78.0562694,14.9327461 C77.0168912,15.1907772 76.4220725,16.1296373 76.6801036,17.1690155 C76.9205181,18.1431088 77.300829,18.8415544 78.5080829,19.6819689 L83.7184456,23.3203109 C85.8013472,24.7690155 87.1143005,25.7545078 87.781658,28.4498446 C88.5940933,31.7296373 86.2832124,34.2332642 83.035544,35.0374093 C79.7557513,35.8498446 76.6666321,34.6508808 75.8614508,31.4021762 L75.273886,29.0311917 L79.366114,28.0177202 L79.8883938,30.128601 C80.2345078,31.5265285 81.1826943,32.0146114 82.2220725,31.7576166 C83.2303627,31.5089119 83.8573057,30.5607254 83.527772,29.2280829 C83.2293264,28.0260104 82.5163731,27.2374093 81.4303627,26.4716062 L77.1920207,23.8332642 C74.4210363,21.8311917 73.3339896,21.3420725 72.5619689,18.2239378 C71.7982383,15.1379275 73.7754404,12.5441451 77.2500518,11.6840415 C80.6946114,10.8311917 83.6365803,12.2736788 84.3847668,15.2954404 L84.7795855,16.886114 L80.7184456,17.8912953 Z" id="Fill-30" fill="#000000"></path>
            <polygon id="Fill-32" fill="#000000" points="102.278756 12.4275648 97.9626943 12.5923316 98.7295337 32.7011399 94.5481865 32.8627979 93.7813472 12.7529534 89.4984456 12.9166839 89.3720207 9.60373057 102.153368 9.11564767"></polygon>
            <path d="M112.098031,24.9654922 L112.112539,16.4701554 L112.013057,16.4556477 L109.451399,24.5603109 L112.098031,24.9654922 Z M112.24829,28.4079793 L108.245181,27.7945078 L106.625492,33.0649741 L102.722902,32.4670466 L111.032746,10.0442487 L115.166425,10.6753368 L116.383005,34.5592746 L112.249326,33.926114 L112.24829,28.4079793 Z" id="Fill-34" fill="#000000"></path>
            <polygon id="Fill-36" fill="#000000" points="140.108601 18.7074611 131.079585 40.3406218 127.217409 38.7292228 128.587358 24.7489119 128.526218 24.7230052 123.353161 37.1167876 119.490984 35.5043523 128.518964 13.8701554 132.598756 15.5727461 131.180104 29.060829 131.240207 29.0867358 136.245389 17.0939896"></polygon>
            <polygon id="Fill-38" fill="#000000" points="156.755751 33.7981347 153.295648 31.2167876 141.271813 47.3349223 137.918446 44.8333679 149.943316 28.7162694 146.510155 26.1546114 148.490466 23.4996891 158.736062 31.1432124"></polygon>
            <path d="M76.0167876,118.429637 C75.6934715,119.21513 74.7939896,119.589223 74.0095337,119.265907 C73.2250777,118.941554 72.8499482,118.042073 73.1743005,117.257617 L73.199171,117.19544 C73.5235233,116.409948 74.4230052,116.035855 75.2074611,116.359171 C75.9929534,116.682487 76.3670466,117.583005 76.0426943,118.367461 L76.0167876,118.429637 Z M72.2219689,127.636891 C71.8976166,128.421347 70.9981347,128.79544 70.2136788,128.472124 C69.4292228,128.148808 69.0540933,127.249326 69.3784456,126.46487 L69.4033161,126.401658 C69.7276684,125.617202 70.6271503,125.243109 71.4116062,125.566425 C72.1960622,125.889741 72.5711917,126.789223 72.2468394,127.574715 L72.2219689,127.636891 Z M71.4178238,110.398549 C70.9007254,111.376788 70.4230052,112.391295 69.9939896,113.43171 C66.5919171,121.683523 66.5981347,130.641036 67.8665285,138.476269 C67.9504663,138.983005 68.4986528,139.249326 68.9421762,139.046218 L79.3960622,113.688705 L71.4178238,110.398549 Z" id="Fill-40" fill="#000000"></path>
            <path d="M111.258031,130.443316 C107.727461,139.008083 101.070466,145.517927 94.4041451,150.228808 C93.946114,150.552124 93.3056995,150.281658 93.2103627,149.73658 C92.2818653,144.403938 91.9170984,138.510674 92.8062176,132.656788 L80.7067358,127.648497 C77.8632124,131.526218 74.4196891,134.844352 70.8601036,137.620518 L80.5336788,114.157306 L112.385492,127.288912 C112.059067,128.352124 111.687047,129.402902 111.258031,130.443316" id="Fill-42" fill="#000000"></path>
            <path d="M88.5056995,85.667772 L88.5637306,85.6905699 C89.3471503,86.0149223 89.7222798,86.9144041 89.3979275,87.6988601 C89.0756477,88.4833161 88.1761658,88.8584456 87.3906736,88.5351295 L87.3336788,88.5112953 C86.5492228,88.1879793 86.1751295,87.2874611 86.4984456,86.5030052 C86.8217617,85.7185492 87.7212435,85.344456 88.5056995,85.667772 M81.1357513,109.920622 C80.811399,110.706114 79.9119171,111.080207 79.1274611,110.756891 L79.0715026,110.733057 C78.2860104,110.409741 77.9108808,109.510259 78.2352332,108.724767 C78.5585492,107.940311 79.4580311,107.566218 80.242487,107.889534 L80.2994819,107.913368 C81.0849741,108.236684 81.4590674,109.136166 81.1357513,109.920622 M89.4497409,111.685389 L89.5129534,111.711295 C90.2974093,112.034611 90.6715026,112.934093 90.3471503,113.719585 C90.0248705,114.504041 89.1253886,114.878135 88.3398964,114.554819 L88.2777202,114.528912 C87.492228,114.205596 87.1181347,113.306114 87.442487,112.521658 C87.7658031,111.736166 88.6642487,111.362073 89.4497409,111.685389 M98.6569948,115.481244 L98.719171,115.50715 C99.5036269,115.830466 99.8787565,116.729948 99.5544041,117.514404 C99.2321244,118.299896 98.3316062,118.67399 97.5471503,118.350674 L97.4849741,118.324767 C96.6994819,118.001451 96.3253886,117.100933 96.6487047,116.316477 C96.973057,115.532021 97.8715026,115.157927 98.6569948,115.481244 M107.870466,119.279171 L107.926425,119.303005 C108.717098,119.628394 109.084974,120.525803 108.761658,121.311295 C108.438342,122.095751 107.544041,122.471917 106.753368,122.146528 L106.697409,122.122694 C105.912953,121.799378 105.53886,120.899896 105.86114,120.11544 C106.185492,119.329948 107.084974,118.955855 107.870466,119.279171 M117.940933,97.802487 L118.004145,97.8283938 C118.788601,98.1517098 119.162694,99.052228 118.838342,99.8366839 C118.516062,100.62114 117.61658,100.995233 116.831088,100.671917 L116.767876,100.64601 C115.984456,100.322694 115.609326,99.4232124 115.933679,98.6387565 C116.255959,97.8532642 117.15544,97.479171 117.940933,97.802487 M72.0176166,109.31544 L112.728497,126.099896 C113.543005,123.108187 113.972021,120.065699 114.117098,117.051192 C114.124352,117.034611 114.139896,117.027358 114.145078,117.015959 C116.804145,113.90715 119.106736,110.385907 120.73886,106.428394 C121.821762,103.801451 122.563731,101.09886 123.020725,98.3931606 L110.958549,93.4201036 C111.26943,95.4584456 110.92228,97.6242487 109.797927,99.6087047 C107.68601,103.327876 103.204145,105.193161 99.0704663,104.067772 C93.0041451,102.419067 90.1585492,95.5703627 93.2559585,90.1071503 C93.9160622,88.9423834 94.8072539,87.9589637 95.8487047,87.1910881 L83.4341969,82.0729534 C81.8435233,84.3185492 80.4673575,86.7517098 79.384456,89.3786528 C77.5668394,93.7859067 76.7170984,98.3993782 76.5202073,102.928912 L76.5181347,102.934093 C74.8445596,104.892642 73.3170984,107.018031 72.0176166,109.31544" id="Fill-44" fill="#000000"></path>
            <path d="M123.216684,97.1431088 L110.608394,91.9451813 C110.596995,91.9078756 110.589741,91.8778238 110.571088,91.8436269 L119.849845,69.3348187 C121.15658,73.2197927 122.456062,78.0073575 123.144145,83.2146114 C123.73171,87.6622798 123.87886,92.4063212 123.216684,97.1431088" id="Fill-46" fill="#000000"></path>
            <path d="M115.024663,74.358342 C114.701347,75.1427979 113.801865,75.5179275 113.017409,75.1935751 C112.232953,74.8702591 111.857824,73.9707772 112.18114,73.1863212 L112.207047,73.1231088 C112.531399,72.3386528 113.429845,71.9645596 114.215337,72.2878756 C114.999793,72.6111917 115.373886,73.5106736 115.05057,74.2951295 L115.024663,74.358342 Z M111.226736,83.5707772 C110.902383,84.3552332 110.003938,84.7303627 109.218446,84.4060104 C108.435026,84.0826943 108.059896,83.1832124 108.383212,82.3987565 L108.409119,82.3365803 C108.733472,81.5510881 109.631917,81.1769948 110.417409,81.5003109 C111.201865,81.8246632 111.575959,82.7231088 111.252642,83.508601 L111.226736,83.5707772 Z M116.074404,60.0806218 L119.837098,56.6018653 L117.993575,52.5345078 L118.078549,50.6339896 C119.12829,50.9137824 120.254715,50.3935751 120.678549,49.3635233 C121.142798,48.2370984 120.602902,46.9500518 119.482694,46.4878756 C118.356269,46.0246632 117.071295,46.5593782 116.60601,47.6847668 C116.194611,48.6858031 116.590466,49.8070466 117.477513,50.3655959 L117.371813,52.6578238 L119.09513,56.4484974 L115.56456,59.7179275 C113.774922,60.3168912 103.54487,63.8764767 94.0381347,71.2153368 C90.4889119,73.9500518 87.0412435,77.2132642 84.1759585,81.0484974 L97.1365803,86.3915026 C99.2049741,85.3282902 101.653679,85.0060104 103.986321,85.6422798 C106.653679,86.3697409 108.696166,88.0961658 109.887876,90.2712953 L119.240207,67.5863212 C117.866114,63.7863212 116.583212,61.0889119 116.074404,60.0806218 Z" id="Fill-48" fill="#000000"></path>
            <path d="M78.5609326,137.542902 L71.6707772,154.142902 C71.3640415,154.003005 71.0842487,153.863109 70.8065285,153.696269 C70.5267358,153.556373 70.22,153.389534 69.9412435,153.221658 L76.7484974,136.789534 C76.9433161,136.287979 77.5288083,136.064145 78.031399,136.26 C78.5339896,136.482798 78.7557513,137.041347 78.5609326,137.542902" id="Fill-50" fill="#000000"></path>
            <path d="M89.0794819,141.894922 L82.2432124,158.355026 C81.9095337,158.299067 81.6307772,158.188187 81.3240415,158.076269 L81.2950259,158.076269 C80.9882902,157.992332 80.6815544,157.908394 80.3748187,157.769534 L87.2660104,141.141554 C87.460829,140.64 88.0473575,140.416166 88.5489119,140.612021 C89.0515026,140.834819 89.2743005,141.393368 89.0794819,141.894922" id="Fill-52" fill="#000000"></path>
            <path d="M80.7094301,147.195751 L76.8596891,156.485907 C76.5529534,156.401969 76.2451813,156.290052 75.9674611,156.123212 C75.6596891,156.039275 75.3529534,155.900415 75.0741969,155.732539 L78.9239378,146.442383 C79.1197927,145.940829 79.705285,145.716995 80.1788601,145.91285 C80.682487,146.135648 80.9332642,146.694197 80.7094301,147.195751" id="Fill-54" fill="#000000"></path>
        </g>
    </g>
</svg>