<?xml version="1.0" encoding="UTF-8" standalone="no"?>
<svg width="50px" height="50px" viewBox="0 0 50 50" version="1.1" xmlns="http://www.w3.org/2000/svg" xmlns:xlink="http://www.w3.org/1999/xlink">
    <!-- Generator: Sketch 49 (51002) - http://www.bohemiancoding.com/sketch -->
    <title>Icon/Share/Share</title>
    <desc>Created with Sketch.</desc>
    <defs></defs>
    <g id="Icon/Share/Share" stroke="none" stroke-width="1" fill="none" fill-rule="evenodd">
        <g>
            <circle id="Oval-4-Copy-3" fill="#4BB7CB" cx="25" cy="25" r="25"></circle>
            <path d="M18.8144299,23.79223 L27.5784757,19.0731285 C27.2113783,18.4685618 27,17.7589659 27,17 C27,14.790861 28.790861,13 31,13 C33.209139,13 35,14.790861 35,17 C35,19.209139 33.209139,21 31,21 C29.5498269,21 28.2798969,20.2282876 27.5784757,19.0731285 L18.8144299,23.79223 C18.3023315,22.1734012 16.788197,21 15,21 C12.790861,21 11,22.790861 11,25 C11,27.209139 12.790861,29 15,29 C16.6401635,29 18.0497621,28.0128342 18.6670615,26.6002369 L27.2076385,31.7245831 C27.7400676,30.1408143 29.2368081,29 31,29 C33.209139,29 35,30.790861 35,33 C35,35.209139 33.209139,37 31,37 C28.790861,37 27,35.209139 27,33 C27,32.5540529 27.0729764,32.1251504 27.2076385,31.7245831 L18.6670615,26.6002369 C18.8812037,26.1102046 19,25.5689755 19,25 C19,24.579058 18.934978,24.1733027 18.8144299,23.79223 Z" id="Combined-Shape" stroke="#FFFFFF" stroke-width="1.5" fill="#FFFFFF"></path>
        </g>
    </g>
</svg>