<?xml version="1.0" encoding="UTF-8" standalone="no"?>
<svg width="50px" height="50px" viewBox="0 0 50 50" version="1.1" xmlns="http://www.w3.org/2000/svg" xmlns:xlink="http://www.w3.org/1999/xlink">
    <!-- Generator: Sketch 49 (51002) - http://www.bohemiancoding.com/sketch -->
    <title>Icon/Share/Twitter</title>
    <desc>Created with Sketch.</desc>
    <defs></defs>
    <g id="Icon/Share/Twitter" stroke="none" stroke-width="1" fill="none" fill-rule="evenodd">
        <g>
            <circle id="Oval-4-Copy" fill="#4BB7CB" cx="25" cy="25" r="25"></circle>
            <path d="M38,17.32 C37.0819444,17.7053333 36.0916667,17.972 35.0569444,18.0933333 C36.1166667,17.48 36.9263889,16.5186667 37.3097222,15.3733333 C36.3194444,15.9333333 35.2236111,16.3453333 34.0541667,16.56 C33.1180556,15.6 31.7861111,15 30.3111111,15 C27.4763889,15 25.1819444,17.2133333 25.1819444,19.9333333 C25.1819444,20.32 25.2277778,20.692 25.3166667,21.052 C21.0486111,20.84 17.2722222,18.892 14.7416667,15.9053333 C14.3,16.6253333 14.0472222,17.48 14.0472222,18.3853333 C14.0472222,20.0933333 14.9513889,21.6 16.3291667,22.48 C15.4861111,22.452 14.6944444,22.2386667 14.0041667,21.8653333 L14.0041667,21.9186667 C14.0041667,24.304 15.7736111,26.304 18.1194444,26.76 C17.6888889,26.8653333 17.2347222,26.9186667 16.7680556,26.9186667 C16.4375,26.9186667 16.1180556,26.892 15.8027778,26.84 C16.4583333,28.7986667 18.35,30.2253333 20.5958333,30.2653333 C18.8402778,31.572 16.6277778,32.3586667 14.225,32.3586667 C13.8097222,32.3586667 13.4027778,32.3453333 13,32.292 C15.2708333,33.692 17.9666667,34.5053333 20.8638889,34.5053333 C30.2972222,34.5053333 35.4583333,27 35.4583333,20.5053333 C35.4583333,20.292 35.4527778,20.0786667 35.4402778,19.8653333 C36.4430556,19.172 37.3111111,18.304 38,17.32" id="Shape" fill="#FFFFFF" fill-rule="nonzero"></path>
        </g>
    </g>
</svg>